<svg version="1.1" xmlns="http://www.w3.org/2000/svg" xmlns:xlink="http://www.w3.org/1999/xlink" width="800px" height="800px" viewBox="0,0,256,256"><g fill="#9b2bb7" fill-rule="none" stroke="none" stroke-width="1" stroke-linecap="butt" stroke-linejoin="miter" stroke-miterlimit="10" stroke-dasharray="" stroke-dashoffset="0" font-family="none" font-weight="none" font-size="none" text-anchor="none" style="mix-blend-mode: normal"><g transform="scale(10.66667,10.66667)"><path d="M14,7c0,-0.55229 0.4477,-1 1,-1h1v-1c0,-0.55228 0.4477,-1 1,-1c0.5523,0 1,0.44772 1,1v1h1c0.5523,0 1,0.44771 1,1c0,0.55229 -0.4477,1 -1,1h-1v1c0,0.55228 -0.4477,1 -1,1c-0.5523,0 -1,-0.44772 -1,-1v-1h-1c-0.5523,0 -1,-0.44771 -1,-1z" fill-rule="nonzero"></path><path d="M14,15c0,-0.5523 0.4477,-1 1,-1h4c0.5523,0 1,0.4477 1,1c0,0.5523 -0.4477,1 -1,1h-4c-0.5523,0 -1,-0.4477 -1,-1z" fill-rule="nonzero"></path><path d="M15,18c-0.5523,0 -1,0.4477 -1,1c0,0.5523 0.4477,1 1,1h4c0.5523,0 1,-0.4477 1,-1c0,-0.5523 -0.4477,-1 -1,-1z" fill-rule="nonzero"></path><path d="M5,6c-0.55228,0 -1,0.44771 -1,1c0,0.55229 0.44772,1 1,1h4c0.55228,0 1,-0.44771 1,-1c0,-0.55229 -0.44772,-1 -1,-1z" fill-rule="nonzero"></path><path d="M5.92512,14.5109c-0.39052,-0.3905 -1.02369,-0.3905 -1.41421,0c-0.39052,0.3905 -0.39052,1.0237 0,1.4142l1.07489,1.0749l-1.08243,1.0824c-0.39053,0.3905 -0.39053,1.0237 0,1.4142c0.39052,0.3906 1.02368,0.3906 1.41421,0l1.08244,-1.0824l1.08942,1.0894c0.39052,0.3905 1.02369,0.3905 1.41421,0c0.39053,-0.3905 0.39053,-1.0237 0,-1.4142l-1.08942,-1.0894l1.08771,-1.0877c0.39052,-0.3905 0.39052,-1.0237 0,-1.4142c-0.39053,-0.3906 -1.02369,-0.3906 -1.41422,0l-1.0877,1.0877z" fill-rule="nonzero"></path><path d="M20,1c1.6569,0 3,1.34315 3,3v16c0,1.6569 -1.3431,3 -3,3h-16c-1.65685,0 -3,-1.3431 -3,-3v-16c0,-1.65685 1.34315,-3 3,-3zM20,3c0.5523,0 1,0.44772 1,1v7h-8v-8zM21,13v7c0,0.5523 -0.4477,1 -1,1h-7v-8zM4,3h7v8h-8v-7c0,-0.55228 0.44772,-1 1,-1zM3,20v-7h8v8h-7c-0.55228,0 -1,-0.4477 -1,-1z" fill-rule="evenodd"></path></g></g></svg>