<svg version="1.1" xmlns="http://www.w3.org/2000/svg" xmlns:xlink="http://www.w3.org/1999/xlink" width="32px" height="32px" viewBox="0,0,256,256"><g fill="#a02ebd" fill-rule="nonzero" stroke="none" stroke-width="1" stroke-linecap="butt" stroke-linejoin="miter" stroke-miterlimit="10" stroke-dasharray="" stroke-dashoffset="0" font-family="none" font-weight="none" font-size="none" text-anchor="none" style="mix-blend-mode: normal"><g transform="scale(8,8)"><path d="M23,7h-14c-5,0 -9,4 -9,9c0,5 4,9 9,9h14c5,0 9,-4 9,-9c0,-5 -4,-9 -9,-9zM8,17h-1v1c0,0.6 -0.4,1 -1,1c-0.6,0 -1,-0.4 -1,-1v-1h-1c-0.6,0 -1,-0.4 -1,-1c0,-0.6 0.4,-1 1,-1h1v-1c0,-0.6 0.4,-1 1,-1c0.6,0 1,0.4 1,1v1h1c0.6,0 1,0.4 1,1c0,0.6 -0.4,1 -1,1zM22,21c0,0.6 -0.4,1 -1,1h-10c-0.6,0 -1,-0.4 -1,-1v-10c0,-0.6 0.4,-1 1,-1h10c0.6,0 1,0.4 1,1zM25.1,13.6c0.1,-0.1 0.1,-0.2 0.2,-0.3c0.4,-0.4 1,-0.4 1.4,0c0.2,0.2 0.3,0.4 0.3,0.7c0,0.3 -0.1,0.5 -0.3,0.7c-0.2,0.2 -0.4,0.3 -0.7,0.3c-0.3,0 -0.5,-0.1 -0.7,-0.3c-0.2,-0.2 -0.3,-0.4 -0.3,-0.7c0,-0.1 0,-0.3 0.1,-0.4zM24,17c-0.3,0 -0.5,-0.1 -0.7,-0.3c-0.2,-0.2 -0.3,-0.4 -0.3,-0.7c0,-0.3 0.1,-0.5 0.3,-0.7c0.1,-0.1 0.2,-0.2 0.3,-0.2c0.4,-0.1 0.8,-0.1 1.1,0.2c0.2,0.2 0.3,0.4 0.3,0.7c0,0.3 -0.1,0.5 -0.3,0.7c-0.2,0.2 -0.4,0.3 -0.7,0.3zM26.7,18.7c-0.2,0.2 -0.4,0.3 -0.7,0.3c-0.3,0 -0.5,-0.1 -0.7,-0.3c-0.2,-0.2 -0.3,-0.4 -0.3,-0.7c0,-0.1 0,-0.3 0.1,-0.4c0.1,-0.1 0.1,-0.2 0.2,-0.3c0.4,-0.4 1,-0.4 1.4,0c0.1,0.1 0.2,0.2 0.2,0.3c0,0.1 0.1,0.3 0.1,0.4c0,0.3 -0.1,0.5 -0.3,0.7zM28.7,16.7c-0.2,0.2 -0.4,0.3 -0.7,0.3c-0.3,0 -0.5,-0.1 -0.7,-0.3c-0.2,-0.2 -0.3,-0.4 -0.3,-0.7c0,-0.3 0.1,-0.5 0.3,-0.7c0.4,-0.4 1,-0.4 1.4,0c0.2,0.2 0.3,0.4 0.3,0.7c0,0.3 -0.1,0.5 -0.3,0.7z"></path></g></g></svg>