<svg version="1.1" xmlns="http://www.w3.org/2000/svg" xmlns:xlink="http://www.w3.org/1999/xlink" width="800px" height="800px" viewBox="0,0,256,256"><g fill="#912daa" fill-rule="evenodd" stroke="none" stroke-width="1" stroke-linecap="butt" stroke-linejoin="miter" stroke-miterlimit="10" stroke-dasharray="" stroke-dashoffset="0" font-family="none" font-weight="none" font-size="none" text-anchor="none" style="mix-blend-mode: normal"><g transform="translate(0.00233,-0.04447) scale(0.13333,0.13333)"><g><path d="M1164.23,160.333h304.01v337.82l-627.958,627.957c-31.623,31.62 -49.694,74.54 -49.694,119.71v395.3h395.292c45.18,0 88.1,-18.07 119.72,-49.7l162.64,-162.63v438.21h-1468.24v-1706.667h329.104c21.965,-62.143 81.231,-106.666 150.896,-106.666h533.33c69.67,0 128.93,44.523 150.9,106.666zM426.667,213.667c0,-29.456 23.878,-53.334 53.333,-53.334h533.33c29.46,0 53.34,23.878 53.34,53.334v160h-640.003z"></path><path d="M1677.57,528.308l225.88,225.882c22.02,22.024 22.02,57.713 0,79.85l-677.65,677.65c-10.62,10.5 -24.96,16.49 -39.98,16.49h-282.353v-282.36c0,-15.02 5.986,-29.36 16.489,-39.87l677.644,-677.642c22.14,-22.137 57.83,-22.137 79.97,0zM1548.02,737.588l146.03,146.033l89.56,-89.562l-146.03,-146.033z"></path></g></g></g></svg>