<svg version="1.1" xmlns="http://www.w3.org/2000/svg" xmlns:xlink="http://www.w3.org/1999/xlink" width="800px" height="800px" viewBox="0,0,256,256"><g fill="#9a2eb5" fill-rule="nonzero" stroke="none" stroke-width="1" stroke-linecap="butt" stroke-linejoin="miter" stroke-miterlimit="10" stroke-dasharray="" stroke-dashoffset="0" font-family="none" font-weight="none" font-size="none" text-anchor="none" style="mix-blend-mode: normal"><g transform="translate(0,-0.00533) scale(10.66667,10.66667)"><path d="M12,0.04c-0.85743,0.00033 -1.58728,0.62422 -1.721,1.47116c-0.13373,0.84694 0.36839,1.66535 1.184,1.92984l-0.631,2.579h-8.376c-1.35641,0 -2.456,1.09959 -2.456,2.456v13.029c0,1.35641 1.09959,2.456 2.456,2.456h19.088c1.356,0 2.456,-1.1 2.456,-2.456v-13.029c0,-1.356 -1.1,-2.456 -2.456,-2.456h-8.403l-0.616,-2.575c0.82023,-0.25918 1.32872,-1.07798 1.1974,-1.9281c-0.13132,-0.85012 -0.8632,-1.47731 -1.7234,-1.4769zM3.933,7.881h16.136c1.101,0 1.994,0.893 1.994,1.994v10.117c0,1.10126 -0.89274,1.994 -1.994,1.994h-16.136c-1.10126,0 -1.994,-0.89274 -1.994,-1.994v-10.117c0,-1.101 0.893,-1.994 1.994,-1.994zM7.187,10.193c-2.5267,0 -4.575,2.0483 -4.575,4.575c0,2.5267 2.0483,4.575 4.575,4.575c2.5267,0 4.575,-2.0483 4.575,-4.575c0,-2.5267 -2.0483,-4.575 -4.575,-4.575zM16.93,10.193c-2.5267,0 -4.575,2.0483 -4.575,4.575c0,2.5267 2.0483,4.575 4.575,4.575c2.5267,0 4.575,-2.0483 4.575,-4.575c0,-2.5267 -2.0483,-4.575 -4.575,-4.575zM7.187,11.263c1.26651,-0.02139 2.44607,0.64203 3.08558,1.73543c0.63951,1.0934 0.63951,2.44673 0,3.54013c-0.63951,1.0934 -1.81907,1.75683 -3.08558,1.73543c-1.91295,-0.03231 -3.44679,-1.59227 -3.44679,-3.5055c0,-1.91323 1.53384,-3.47319 3.44679,-3.5055zM16.93,11.263c1.26651,-0.02139 2.44607,0.64203 3.08558,1.73543c0.63951,1.0934 0.63951,2.44673 0,3.54013c-0.63951,1.0934 -1.81907,1.75683 -3.08558,1.73543c-1.91295,-0.03231 -3.44679,-1.59227 -3.44679,-3.5055c0,-1.91323 1.53384,-3.47319 3.44679,-3.5055zM7.187,12.926c-1.01786,0 -1.843,0.82514 -1.843,1.843c0,1.01786 0.82514,1.843 1.843,1.843c1.01786,0 1.843,-0.82514 1.843,-1.843c0,-1.01786 -0.82514,-1.843 -1.843,-1.843zM16.93,12.926c-1.01786,0 -1.843,0.82514 -1.843,1.843c0,1.01786 0.82514,1.843 1.843,1.843c1.01786,0 1.843,-0.82514 1.843,-1.843c0,-1.01786 -0.82514,-1.843 -1.843,-1.843zM10.003,19.426v2.159h0.706v-2.159zM11.08,19.426v2.159h0.705v-2.159zM12.156,19.426v2.159h0.706v-2.159zM13.233,19.426v2.159h0.706v-2.159zM14.31,19.456v2.1c0.48558,-0.11603 0.82834,-0.54975 0.829,-1.049v-0.001c0,-0.51 -0.354,-0.937 -0.829,-1.05zM9.632,19.484c-0.43681,0.14916 -0.73055,0.55943 -0.731,1.021v0.001c0,0.474 0.306,0.876 0.731,1.021z"></path></g></g></svg>