<svg version="1.1" xmlns="http://www.w3.org/2000/svg" xmlns:xlink="http://www.w3.org/1999/xlink" width="100%" height="512px" viewBox="0,0,50,256"><g fill="#ffffff" fill-rule="nonzero" stroke="none" stroke-width="1" stroke-linecap="butt" stroke-linejoin="miter" stroke-miterlimit="10" stroke-dasharray="" stroke-dashoffset="0" font-family="none" font-weight="none" font-size="none" text-anchor="none" style="mix-blend-mode: normal"><g transform="translate(-0.09766,-0.51657) scale(0.09766,0.5)"><path d="M499.00488,513c-164.83463,0 -329.1678,-0.01471 -493.50087,0.09314c-3.73966,0.00244 -4.60102,-0.83002 -4.59857,-4.58923c0.1093,-167.66644 0.10899,-335.33293 0.00156,-502.99935c-0.0024,-3.73832 0.82801,-4.60168 4.58856,-4.59922c167.66642,0.10943 335.33291,0.10907 502.99935,0.00176c3.73703,-0.00239 4.60226,0.82602 4.59982,4.58791c-0.10956,167.66642 -0.10907,335.3329 -0.00189,502.99935c0.00238,3.73563 -0.7973,5.03915 -4.59595,4.57748c-2.95609,-0.35925 -5.99078,-0.07184 -9.492,-0.07184z"></path></g></g></svg>