<svg version="1.1" xmlns="http://www.w3.org/2000/svg" xmlns:xlink="http://www.w3.org/1999/xlink" width="800px" height="800px" viewBox="0,0,256,256"><g fill="#a22ac0" fill-rule="nonzero" stroke="none" stroke-width="1" stroke-linecap="butt" stroke-linejoin="miter" stroke-miterlimit="10" stroke-dasharray="" stroke-dashoffset="0" font-family="none" font-weight="none" font-size="none" text-anchor="none" style="mix-blend-mode: normal"><g transform="scale(0.5,0.5)"><g><g><path d="M452.923,36.103h-393.846c-32.575,0 -59.077,26.501 -59.077,59.076v288.821c0,32.576 26.502,59.077 59.077,59.077h6.564v32.82h39.385v-32.82h288.821v32.82h39.385v-32.82h19.692c32.575,0 59.076,-26.501 59.076,-59.077v-288.821c0,-32.575 -26.501,-59.076 -59.077,-59.076zM472.615,384c0,10.86 -8.833,19.692 -19.692,19.692h-393.846c-10.858,0 -19.692,-8.833 -19.692,-19.692v-288.821c0,-10.858 8.834,-19.692 19.692,-19.692h393.846c10.86,0 19.692,8.834 19.692,19.692z"></path></g></g><g><g><path d="M223.18,222.28v-35.203h-39.385v35.203c-4.072,4.626 -6.564,10.676 -6.564,17.31c0,14.478 11.779,26.256 26.256,26.256c14.477,0 26.256,-11.779 26.256,-26.256c0.001,-6.634 -2.491,-12.682 -6.563,-17.31z"></path></g></g><g><g><path d="M406.974,160.82c-14.478,0 -26.256,11.779 -26.256,26.256c0,6.634 2.492,12.682 6.564,17.31v100.844h39.385v-100.844c4.072,-4.626 6.564,-10.676 6.564,-17.31c0,-14.477 -11.779,-26.256 -26.257,-26.256z"></path></g></g><g><g><path d="M203.487,114.872c-68.769,0 -124.718,55.948 -124.718,124.718c0,68.77 55.948,124.718 124.718,124.718c68.77,0 124.718,-55.948 124.718,-124.718c0,-68.77 -55.948,-124.718 -124.718,-124.718zM203.487,324.923c-47.053,0 -85.333,-38.281 -85.333,-85.333c0,-47.053 38.281,-85.333 85.333,-85.333c47.052,0 85.333,38.281 85.333,85.333c0,47.053 -38.28,85.333 -85.333,85.333z"></path></g></g></g></g></svg>